 <svg xmlns="http://www.w3.org/2000/svg" xmlns:xlink="http://www.w3.org/1999/xlink" version="1.1" width="3300" height="1290" viewBox="0 0 3300 1290">
			
			<g transform="scale(15) translate(10, 10)">
				<defs id="SvgjsDefs2322"/><g id="SvgjsG2323" featureKey="nameContainer" transform="matrix(1,0,0,1,0,0)" fill="#fff"><rect y="0" height="1" width="1" opacity="0"/><rect y="61" width="200" height="5"/></g><g id="SvgjsG2324" featureKey="nameFeature-0" transform="matrix(1.0921798383695163,0,0,1.0921798383695163,5.207919303748685e-7,4.893841939565805)" fill="#fff"><path d="M22.4 12 l0 8.4 l-5.6 0 l0 -2.8 l-2.8 0 l0 16.8 l2.8 0 l0 5.6 l-11.2 0 l0 -5.6 l2.8 0 l0 -16.8 l-2.8 0 l0 2.8 l-5.6 0 l0 -8.4 l22.4 0 z M49.8 34.4 l-0.000078124 5.6 l-11.2 0 l0 -5.6 l2.28 0 l-2.56 -4.48 l-5.04 0 l0 4.48 l2.8 0 l0 5.6 l-11.2 0 l0 -5.6 l2.8 0 l0 -16.8 l-2.8 0 l0 -5.6 l13.28 0 c1.2267 0.02668 2.3734 0.28 3.44 0.76 s2 1.12 2.8 1.92 s1.4333 1.74 1.9 2.82 s0.7 2.2333 0.7 3.46 c0 1.44 -0.30668 2.76 -0.92 3.96 s-1.4266 2.2133 -2.44 3.04 l3.72 6.44 l2.44 0 z M33.28 24.32 l4.76 -0.000078124 c0.93332 0 1.7266 -0.32668 2.38 -0.98 s0.98 -1.4466 0.98 -2.38 s-0.32668 -1.7266 -0.98 -2.38 s-1.4466 -0.98 -2.38 -0.98 l-4.76 0 l0 6.72 z M79.72 34.4 l0 5.6 l-11.2 0 l0 -5.6 l2.64 0 l-0.84 -2.8 l-8.64 0 l-0.84 2.8 l2.64 0 l0 5.6 l-11.2 0 l0 -5.6 l2.72 0 l6.72 -22.4 l8.56 0 l6.72 22.4 l2.72 0 z M68.64 26 l-2.52 -8.4 l-0.24 0 l-2.52 8.4 l5.28 0 z M101.80000000000001 12 l0 8.4 l-5.6 0 l0 -2.8 l-5.6 0 l0 5.6 l5.6 0 l0 5.6 l-5.6 0 l0 5.6 l2.8 0 l0 5.6 l-11.2 0 l0 -5.6 l2.8 0 l0 -16.8 l-2.8 0 l0 -5.6 l19.6 0 z M112.72000000000001 34.4 l2.8 0 l0 5.6 l-11.2 0 l0 -5.6 l2.8 0 l0 -16.8 l-2.8 0 l0 -5.6 l11.2 0 l0 5.6 l-2.8 0 l0 16.8 z M137.64000000000001 12 l0 8.4 l-5.6 0 l0 -2.8 l-5.6 0 l0 5.6 l5.6 0 l0 5.6 l-5.6 0 l0 5.6 l2.8 0 l0 5.6 l-11.2 0 l0 -5.6 l2.8 0 l0 -16.8 l-2.8 0 l0 -5.6 l19.6 0 z M159.76 31.6 l0 8.4 l-19.6 0 l0 -5.6 l2.8 0 l0 -16.8 l-2.8 0 l0 -5.6 l11.2 0 l0 5.6 l-2.8 0 l0 16.8 l5.6 0 l0 -2.8 l5.6 0 z M172.88000000000002 29.119999999999997 l0 5.28 l2.8 0 l0 5.6 l-11.2 0 l0 -5.6 l2.8 0 l0 -5.28 l-7.92 -11.52 l-2.28 0 l0 -5.6 l11.2 0 l0 5.6 l-2.12 0 l3.92 5.72 l3.96 -5.72 l-2.12 0 l0 -5.6 l11.2 0 l0 5.6 l-2.28 0 z"/></g>
			</g>
		</svg>
	